<?xml version="1.0" encoding="UTF-8" standalone="no"?>
<!DOCTYPE svg PUBLIC "-//W3C//DTD SVG 1.1//EN"
 "http://www.w3.org/Graphics/SVG/1.1/DTD/svg11.dtd">
<!-- Generated by graphviz version 7.0.4 (20221203.1631)
 -->
<!-- Title: Network Lookup Tree Pages: 1 -->
<svg width="1168pt" height="702pt"
 viewBox="0.00 0.00 1167.50 702.00" xmlns="http://www.w3.org/2000/svg" xmlns:xlink="http://www.w3.org/1999/xlink">
<g id="graph0" class="graph" transform="scale(1 1) rotate(0) translate(4 698)">
<title>Network Lookup Tree</title>
<polygon fill="white" stroke="none" points="-4,4 -4,-698 1163.5,-698 1163.5,4 -4,4"/>
<!-- 0.0.0.0/0 -->
<g id="node1" class="node">
<title>0.0.0.0/0</title>
<polygon fill="orange" stroke="none" points="304.5,-659 304.5,-690 464.5,-690 464.5,-659 304.5,-659"/>
<polygon fill="none" stroke="black" points="304.5,-678.5 304.5,-689.5 464.5,-689.5 464.5,-678.5 304.5,-678.5"/>
<text text-anchor="start" x="305.5" y="-683.1" font-family="Consolas" font-weight="bold" font-size="8.00">0.0.0.0/0</text>
<polygon fill="yellowgreen" stroke="none" points="304.5,-658.5 304.5,-678.5 464.5,-678.5 464.5,-658.5 304.5,-658.5"/>
<text text-anchor="start" x="305.5" y="-671.1" font-family="Consolas" font-size="8.00" fill="gray">00000000.00000000.00000000.00000000</text>
<text text-anchor="start" x="305.5" y="-662.1" font-family="Consolas" font-size="8.00" fill="gray">00000000.00000000.00000000.00000000</text>
<polygon fill="none" stroke="black" points="304.5,-658.5 304.5,-678.5 464.5,-678.5 464.5,-658.5 304.5,-658.5"/>
</g>
<!-- 0.0.0.0/1 -->
<g id="node2" class="node">
<title>0.0.0.0/1</title>
<text text-anchor="start" x="304.5" y="-551.1" font-family="Consolas" font-weight="bold" font-size="8.00">0.0.0.0/1</text>
<polygon fill="yellowgreen" stroke="none" points="304.5,-527.5 304.5,-547.5 465.5,-547.5 465.5,-527.5 304.5,-527.5"/>
<text text-anchor="start" x="305.5" y="-541.1" font-family="Consolas" font-weight="bold" text-decoration="underline" font-size="8.00">0</text>
<text text-anchor="start" x="310.5" y="-541.1" font-family="Consolas" font-size="8.00" fill="gray">0000000.00000000.00000000.00000000</text>
<text text-anchor="start" x="305.5" y="-532.1" font-family="Consolas" font-size="8.00">0</text>
<text text-anchor="start" x="310.5" y="-532.1" font-family="Consolas" font-size="8.00" fill="gray">0000000.00000000.00000000.00000000</text>
<polygon fill="none" stroke="black" points="304.5,-527.5 304.5,-547.5 465.5,-547.5 465.5,-527.5 304.5,-527.5"/>
</g>
<!-- 0.0.0.0/0&#45;&gt;0.0.0.0/1 -->
<g id="edge1" class="edge">
<title>0.0.0.0/0&#45;&gt;0.0.0.0/1</title>
<path fill="none" stroke="black" d="M384.5,-655.15C384.5,-633.62 384.5,-597.65 384.5,-572.37"/>
<polygon fill="none" stroke="black" points="388,-572.44 384.5,-562.44 381,-572.44 388,-572.44"/>
</g>
<!-- 0.0.0.0/2 -->
<g id="node3" class="node">
<title>0.0.0.0/2</title>
<text text-anchor="start" x="206.5" y="-420.1" font-family="Consolas" font-weight="bold" font-size="8.00">0.0.0.0/2</text>
<polygon fill="yellowgreen" stroke="none" points="206.5,-396.5 206.5,-416.5 367.5,-416.5 367.5,-396.5 206.5,-396.5"/>
<text text-anchor="start" x="207.5" y="-410.1" font-family="Consolas" font-size="8.00">0</text>
<text text-anchor="start" x="212.5" y="-410.1" font-family="Consolas" font-weight="bold" text-decoration="underline" font-size="8.00">0</text>
<text text-anchor="start" x="217.5" y="-410.1" font-family="Consolas" font-size="8.00" fill="gray">000000.00000000.00000000.00000000</text>
<text text-anchor="start" x="207.5" y="-401.1" font-family="Consolas" font-size="8.00">00</text>
<text text-anchor="start" x="217.5" y="-401.1" font-family="Consolas" font-size="8.00" fill="gray">000000.00000000.00000000.00000000</text>
<polygon fill="none" stroke="black" points="206.5,-396.5 206.5,-416.5 367.5,-416.5 367.5,-396.5 206.5,-396.5"/>
</g>
<!-- 0.0.0.0/1&#45;&gt;0.0.0.0/2 -->
<g id="edge2" class="edge">
<title>0.0.0.0/1&#45;&gt;0.0.0.0/2</title>
<path fill="none" stroke="black" d="M371.28,-524.1C354.61,-502.15 325.77,-464.19 306.41,-438.71"/>
<polygon fill="none" stroke="black" points="309.26,-436.67 300.42,-430.83 303.69,-440.91 309.26,-436.67"/>
</g>
<!-- 64.0.0.0/2 -->
<g id="node4" class="node">
<title>64.0.0.0/2</title>
<text text-anchor="start" x="500.5" y="-420.1" font-family="Consolas" font-weight="bold" font-size="8.00">64.0.0.0/2</text>
<polygon fill="yellowgreen" stroke="none" points="500.5,-396.5 500.5,-416.5 661.5,-416.5 661.5,-396.5 500.5,-396.5"/>
<text text-anchor="start" x="501.5" y="-410.1" font-family="Consolas" font-size="8.00">0</text>
<text text-anchor="start" x="506.5" y="-410.1" font-family="Consolas" font-weight="bold" text-decoration="underline" font-size="8.00">1</text>
<text text-anchor="start" x="511.5" y="-410.1" font-family="Consolas" font-size="8.00" fill="gray">000000.00000000.00000000.00000000</text>
<text text-anchor="start" x="501.5" y="-401.1" font-family="Consolas" font-size="8.00">01</text>
<text text-anchor="start" x="511.5" y="-401.1" font-family="Consolas" font-size="8.00" fill="gray">000000.00000000.00000000.00000000</text>
<polygon fill="none" stroke="black" points="500.5,-396.5 500.5,-416.5 661.5,-416.5 661.5,-396.5 500.5,-396.5"/>
</g>
<!-- 0.0.0.0/1&#45;&gt;64.0.0.0/2 -->
<g id="edge3" class="edge">
<title>0.0.0.0/1&#45;&gt;64.0.0.0/2</title>
<path fill="none" stroke="black" d="M410.93,-524.1C445.52,-501.34 506.24,-461.38 544.86,-435.96"/>
<polygon fill="black" stroke="black" points="546.48,-439.08 552.91,-430.66 542.63,-433.23 546.48,-439.08"/>
</g>
<!-- 9.213.0.0/21 -->
<g id="node13" class="node">
<title>9.213.0.0/21</title>
<text text-anchor="start" x="8.5" y="-289.1" font-family="Consolas" font-weight="bold" font-size="8.00">9.213.0.0/21</text>
<polygon fill="lightblue" stroke="none" points="8.5,-265.5 8.5,-285.5 171.5,-285.5 171.5,-265.5 8.5,-265.5"/>
<text text-anchor="start" x="9.5" y="-279.1" font-family="Consolas" font-size="8.00">00</text>
<text text-anchor="start" x="19.5" y="-279.1" font-family="Consolas" font-weight="bold" text-decoration="underline" font-size="8.00">0</text>
<text text-anchor="start" x="24.5" y="-279.1" font-family="Consolas" font-size="8.00">01001.11010101.00000</text>
<text text-anchor="start" x="115.5" y="-279.1" font-family="Consolas" font-size="8.00" fill="gray">000.00000000</text>
<text text-anchor="start" x="9.5" y="-270.1" font-family="Consolas" font-size="8.00">00001001.11010101.00000</text>
<text text-anchor="start" x="113.5" y="-270.1" font-family="Consolas" font-size="8.00" fill="gray">000.00000000</text>
<polygon fill="none" stroke="black" points="8.5,-265.5 8.5,-285.5 171.5,-285.5 171.5,-265.5 8.5,-265.5"/>
</g>
<!-- 0.0.0.0/2&#45;&gt;9.213.0.0/21 -->
<g id="edge12" class="edge">
<title>0.0.0.0/2&#45;&gt;9.213.0.0/21</title>
<path fill="none" stroke="black" d="M259.93,-393.1C225.17,-370.34 164.14,-330.38 125.32,-304.96"/>
<polygon fill="none" stroke="black" points="127.51,-302.21 117.23,-299.66 123.68,-308.06 127.51,-302.21"/>
</g>
<!-- 48.0.0.0/4 -->
<g id="node14" class="node">
<title>48.0.0.0/4</title>
<text text-anchor="start" x="205.5" y="-289.1" font-family="Consolas" font-weight="bold" font-size="8.00">48.0.0.0/4</text>
<polygon fill="yellowgreen" stroke="none" points="205.5,-265.5 205.5,-285.5 367.5,-285.5 367.5,-265.5 205.5,-265.5"/>
<text text-anchor="start" x="206.5" y="-279.1" font-family="Consolas" font-size="8.00">00</text>
<text text-anchor="start" x="216.5" y="-279.1" font-family="Consolas" font-weight="bold" text-decoration="underline" font-size="8.00">1</text>
<text text-anchor="start" x="221.5" y="-279.1" font-family="Consolas" font-size="8.00">1</text>
<text text-anchor="start" x="226.5" y="-279.1" font-family="Consolas" font-size="8.00" fill="gray">0000.00000000.00000000.00000000</text>
<text text-anchor="start" x="206.5" y="-270.1" font-family="Consolas" font-size="8.00">0011</text>
<text text-anchor="start" x="225.5" y="-270.1" font-family="Consolas" font-size="8.00" fill="gray">0000.00000000.00000000.00000000</text>
<polygon fill="none" stroke="black" points="205.5,-265.5 205.5,-285.5 367.5,-285.5 367.5,-265.5 205.5,-265.5"/>
</g>
<!-- 0.0.0.0/2&#45;&gt;48.0.0.0/4 -->
<g id="edge13" class="edge">
<title>0.0.0.0/2&#45;&gt;48.0.0.0/4</title>
<path fill="none" stroke="black" d="M286.5,-393.1C286.5,-371.83 286.5,-335.51 286.5,-310.11"/>
<polygon fill="black" stroke="black" points="290,-310.14 286.5,-300.14 283,-310.14 290,-310.14"/>
</g>
<!-- 69.0.0.0/8 -->
<g id="node5" class="node">
<title>69.0.0.0/8</title>
<text text-anchor="start" x="499.5" y="-289.1" font-family="Consolas" font-weight="bold" font-size="8.00">69.0.0.0/8</text>
<polygon fill="lightblue" stroke="none" points="499.5,-265.5 499.5,-285.5 661.5,-285.5 661.5,-265.5 499.5,-265.5"/>
<text text-anchor="start" x="500.5" y="-279.1" font-family="Consolas" font-size="8.00">01</text>
<text text-anchor="start" x="510.5" y="-279.1" font-family="Consolas" font-weight="bold" text-decoration="underline" font-size="8.00">0</text>
<text text-anchor="start" x="515.5" y="-279.1" font-family="Consolas" font-size="8.00">00101</text>
<text text-anchor="start" x="538.5" y="-279.1" font-family="Consolas" font-size="8.00" fill="gray">.00000000.00000000.00000000</text>
<text text-anchor="start" x="500.5" y="-270.1" font-family="Consolas" font-size="8.00">01000101</text>
<text text-anchor="start" x="537.5" y="-270.1" font-family="Consolas" font-size="8.00" fill="gray">.00000000.00000000.00000000</text>
<polygon fill="none" stroke="black" points="499.5,-265.5 499.5,-285.5 661.5,-285.5 661.5,-265.5 499.5,-265.5"/>
</g>
<!-- 64.0.0.0/2&#45;&gt;69.0.0.0/8 -->
<g id="edge4" class="edge">
<title>64.0.0.0/2&#45;&gt;69.0.0.0/8</title>
<path fill="none" stroke="black" d="M580.5,-393.1C580.5,-371.83 580.5,-335.51 580.5,-310.11"/>
<polygon fill="none" stroke="black" points="584,-310.14 580.5,-300.14 577,-310.14 584,-310.14"/>
</g>
<!-- 109.0.0.0/8 -->
<g id="node6" class="node">
<title>109.0.0.0/8</title>
<text text-anchor="start" x="793.5" y="-289.1" font-family="Consolas" font-weight="bold" font-size="8.00">109.0.0.0/8</text>
<polygon fill="yellowgreen" stroke="none" points="793.5,-265.5 793.5,-285.5 955.5,-285.5 955.5,-265.5 793.5,-265.5"/>
<text text-anchor="start" x="794.5" y="-279.1" font-family="Consolas" font-size="8.00">01</text>
<text text-anchor="start" x="804.5" y="-279.1" font-family="Consolas" font-weight="bold" text-decoration="underline" font-size="8.00">1</text>
<text text-anchor="start" x="809.5" y="-279.1" font-family="Consolas" font-size="8.00">01101</text>
<text text-anchor="start" x="832.5" y="-279.1" font-family="Consolas" font-size="8.00" fill="gray">.00000000.00000000.00000000</text>
<text text-anchor="start" x="794.5" y="-270.1" font-family="Consolas" font-size="8.00">01101101</text>
<text text-anchor="start" x="831.5" y="-270.1" font-family="Consolas" font-size="8.00" fill="gray">.00000000.00000000.00000000</text>
<polygon fill="none" stroke="black" points="793.5,-265.5 793.5,-285.5 955.5,-285.5 955.5,-265.5 793.5,-265.5"/>
</g>
<!-- 64.0.0.0/2&#45;&gt;109.0.0.0/8 -->
<g id="edge5" class="edge">
<title>64.0.0.0/2&#45;&gt;109.0.0.0/8</title>
<path fill="none" stroke="black" d="M620.15,-393.1C673.12,-369.86 766.99,-328.67 824.68,-303.36"/>
<polygon fill="black" stroke="black" points="825.87,-306.66 833.62,-299.44 823.06,-300.25 825.87,-306.66"/>
</g>
<!-- 69.15.21.0/25 -->
<g id="node9" class="node">
<title>69.15.21.0/25</title>
<text text-anchor="start" x="401.5" y="-158.1" font-family="Consolas" font-weight="bold" font-size="8.00">69.15.21.0/25</text>
<polygon fill="lightblue" stroke="none" points="401.5,-134.5 401.5,-154.5 563.5,-154.5 563.5,-134.5 401.5,-134.5"/>
<text text-anchor="start" x="402.5" y="-148.1" font-family="Consolas" font-size="8.00">01000101.</text>
<text text-anchor="start" x="443.5" y="-148.1" font-family="Consolas" font-weight="bold" text-decoration="underline" font-size="8.00">0</text>
<text text-anchor="start" x="448.5" y="-148.1" font-family="Consolas" font-size="8.00">0001111.00010101.0</text>
<text text-anchor="start" x="530.5" y="-148.1" font-family="Consolas" font-size="8.00" fill="gray">0000000</text>
<text text-anchor="start" x="402.5" y="-139.1" font-family="Consolas" font-size="8.00">01000101.00001111.00010101.0</text>
<text text-anchor="start" x="529.5" y="-139.1" font-family="Consolas" font-size="8.00" fill="gray">0000000</text>
<polygon fill="none" stroke="black" points="401.5,-134.5 401.5,-154.5 563.5,-154.5 563.5,-134.5 401.5,-134.5"/>
</g>
<!-- 69.0.0.0/8&#45;&gt;69.15.21.0/25 -->
<g id="edge8" class="edge">
<title>69.0.0.0/8&#45;&gt;69.15.21.0/25</title>
<path fill="none" stroke="black" d="M567.28,-262.1C550.61,-240.15 521.77,-202.19 502.41,-176.71"/>
<polygon fill="none" stroke="black" points="505.26,-174.67 496.42,-168.83 499.69,-178.91 505.26,-174.67"/>
</g>
<!-- 69.128.0.0/9 -->
<g id="node10" class="node">
<title>69.128.0.0/9</title>
<text text-anchor="start" x="598.5" y="-158.1" font-family="Consolas" font-weight="bold" font-size="8.00">69.128.0.0/9</text>
<polygon fill="yellowgreen" stroke="none" points="598.5,-134.5 598.5,-154.5 759.5,-154.5 759.5,-134.5 598.5,-134.5"/>
<text text-anchor="start" x="599.5" y="-148.1" font-family="Consolas" font-size="8.00">01000101.</text>
<text text-anchor="start" x="640.5" y="-148.1" font-family="Consolas" font-weight="bold" text-decoration="underline" font-size="8.00">1</text>
<text text-anchor="start" x="645.5" y="-148.1" font-family="Consolas" font-size="8.00" fill="gray">0000000.00000000.00000000</text>
<text text-anchor="start" x="599.5" y="-139.1" font-family="Consolas" font-size="8.00">01000101.1</text>
<text text-anchor="start" x="645.5" y="-139.1" font-family="Consolas" font-size="8.00" fill="gray">0000000.00000000.00000000</text>
<polygon fill="none" stroke="black" points="598.5,-134.5 598.5,-154.5 759.5,-154.5 759.5,-134.5 598.5,-134.5"/>
</g>
<!-- 69.0.0.0/8&#45;&gt;69.128.0.0/9 -->
<g id="edge9" class="edge">
<title>69.0.0.0/8&#45;&gt;69.128.0.0/9</title>
<path fill="none" stroke="black" d="M593.72,-262.1C610.39,-240.15 639.23,-202.19 658.59,-176.71"/>
<polygon fill="black" stroke="black" points="661.31,-178.91 664.58,-168.83 655.74,-174.67 661.31,-178.91"/>
</g>
<!-- 109.114.42.64/28 -->
<g id="node7" class="node">
<title>109.114.42.64/28</title>
<text text-anchor="start" x="793.5" y="-158.1" font-family="Consolas" font-weight="bold" font-size="8.00">109.114.42.64/28</text>
<polygon fill="lightblue" stroke="none" points="793.5,-134.5 793.5,-154.5 955.5,-154.5 955.5,-134.5 793.5,-134.5"/>
<text text-anchor="start" x="794.5" y="-148.1" font-family="Consolas" font-size="8.00">01101101.</text>
<text text-anchor="start" x="835.5" y="-148.1" font-family="Consolas" font-weight="bold" text-decoration="underline" font-size="8.00">0</text>
<text text-anchor="start" x="840.5" y="-148.1" font-family="Consolas" font-size="8.00">1110010.00101010.0100</text>
<text text-anchor="start" x="935.5" y="-148.1" font-family="Consolas" font-size="8.00" fill="gray">0000</text>
<text text-anchor="start" x="794.5" y="-139.1" font-family="Consolas" font-size="8.00">01101101.01110010.00101010.0100</text>
<text text-anchor="start" x="934.5" y="-139.1" font-family="Consolas" font-size="8.00" fill="gray">0000</text>
<polygon fill="none" stroke="black" points="793.5,-134.5 793.5,-154.5 955.5,-154.5 955.5,-134.5 793.5,-134.5"/>
</g>
<!-- 109.0.0.0/8&#45;&gt;109.114.42.64/28 -->
<g id="edge6" class="edge">
<title>109.0.0.0/8&#45;&gt;109.114.42.64/28</title>
<path fill="none" stroke="black" d="M874.5,-262.1C874.5,-240.83 874.5,-204.51 874.5,-179.11"/>
<polygon fill="none" stroke="black" points="878,-179.14 874.5,-169.14 871,-179.14 878,-179.14"/>
</g>
<!-- 109.195.0.0/17 -->
<g id="node8" class="node">
<title>109.195.0.0/17</title>
<text text-anchor="start" x="989.5" y="-158.1" font-family="Consolas" font-weight="bold" font-size="8.00">109.195.0.0/17</text>
<polygon fill="lightblue" stroke="none" points="989.5,-134.5 989.5,-154.5 1151.5,-154.5 1151.5,-134.5 989.5,-134.5"/>
<text text-anchor="start" x="990.5" y="-148.1" font-family="Consolas" font-size="8.00">01101101.</text>
<text text-anchor="start" x="1031.5" y="-148.1" font-family="Consolas" font-weight="bold" text-decoration="underline" font-size="8.00">1</text>
<text text-anchor="start" x="1036.5" y="-148.1" font-family="Consolas" font-size="8.00">1000011.0</text>
<text text-anchor="start" x="1077.5" y="-148.1" font-family="Consolas" font-size="8.00" fill="gray">0000000.00000000</text>
<text text-anchor="start" x="990.5" y="-139.1" font-family="Consolas" font-size="8.00">01101101.11000011.0</text>
<text text-anchor="start" x="1076.5" y="-139.1" font-family="Consolas" font-size="8.00" fill="gray">0000000.00000000</text>
<polygon fill="none" stroke="black" points="989.5,-134.5 989.5,-154.5 1151.5,-154.5 1151.5,-134.5 989.5,-134.5"/>
</g>
<!-- 109.0.0.0/8&#45;&gt;109.195.0.0/17 -->
<g id="edge7" class="edge">
<title>109.0.0.0/8&#45;&gt;109.195.0.0/17</title>
<path fill="none" stroke="black" d="M900.93,-262.1C935.52,-239.34 996.24,-199.38 1034.86,-173.96"/>
<polygon fill="black" stroke="black" points="1036.48,-177.08 1042.91,-168.66 1032.63,-171.23 1036.48,-177.08"/>
</g>
<!-- 69.169.125.128/30 -->
<g id="node11" class="node">
<title>69.169.125.128/30</title>
<text text-anchor="start" x="499.5" y="-27.1" font-family="Consolas" font-weight="bold" font-size="8.00">69.169.125.128/30</text>
<polygon fill="lightblue" stroke="none" points="499.5,-3.5 499.5,-23.5 662.5,-23.5 662.5,-3.5 499.5,-3.5"/>
<text text-anchor="start" x="500.5" y="-17.1" font-family="Consolas" font-size="8.00">01000101.1</text>
<text text-anchor="start" x="546.5" y="-17.1" font-family="Consolas" font-weight="bold" text-decoration="underline" font-size="8.00">0</text>
<text text-anchor="start" x="551.5" y="-17.1" font-family="Consolas" font-size="8.00">101001.01111101.100000</text>
<text text-anchor="start" x="651.5" y="-17.1" font-family="Consolas" font-size="8.00" fill="gray">00</text>
<text text-anchor="start" x="500.5" y="-8.1" font-family="Consolas" font-size="8.00">01000101.10101001.01111101.100000</text>
<text text-anchor="start" x="649.5" y="-8.1" font-family="Consolas" font-size="8.00" fill="gray">00</text>
<polygon fill="none" stroke="black" points="499.5,-3.5 499.5,-23.5 662.5,-23.5 662.5,-3.5 499.5,-3.5"/>
</g>
<!-- 69.128.0.0/9&#45;&gt;69.169.125.128/30 -->
<g id="edge10" class="edge">
<title>69.128.0.0/9&#45;&gt;69.169.125.128/30</title>
<path fill="none" stroke="black" d="M665.28,-131.1C648.61,-109.15 619.77,-71.19 600.41,-45.71"/>
<polygon fill="none" stroke="black" points="603.26,-43.67 594.42,-37.83 597.69,-47.91 603.26,-43.67"/>
</g>
<!-- 69.248.13.0/26 -->
<g id="node12" class="node">
<title>69.248.13.0/26</title>
<text text-anchor="start" x="696.5" y="-27.1" font-family="Consolas" font-weight="bold" font-size="8.00">69.248.13.0/26</text>
<polygon fill="lightblue" stroke="none" points="696.5,-3.5 696.5,-23.5 859.5,-23.5 859.5,-3.5 696.5,-3.5"/>
<text text-anchor="start" x="697.5" y="-17.1" font-family="Consolas" font-size="8.00">01000101.1</text>
<text text-anchor="start" x="743.5" y="-17.1" font-family="Consolas" font-weight="bold" text-decoration="underline" font-size="8.00">1</text>
<text text-anchor="start" x="748.5" y="-17.1" font-family="Consolas" font-size="8.00">111000.00001101.00</text>
<text text-anchor="start" x="830.5" y="-17.1" font-family="Consolas" font-size="8.00" fill="gray">000000</text>
<text text-anchor="start" x="697.5" y="-8.1" font-family="Consolas" font-size="8.00">01000101.11111000.00001101.00</text>
<text text-anchor="start" x="828.5" y="-8.1" font-family="Consolas" font-size="8.00" fill="gray">000000</text>
<polygon fill="none" stroke="black" points="696.5,-3.5 696.5,-23.5 859.5,-23.5 859.5,-3.5 696.5,-3.5"/>
</g>
<!-- 69.128.0.0/9&#45;&gt;69.248.13.0/26 -->
<g id="edge11" class="edge">
<title>69.128.0.0/9&#45;&gt;69.248.13.0/26</title>
<path fill="none" stroke="black" d="M691.85,-131.1C708.7,-109.15 737.83,-71.19 757.38,-45.71"/>
<polygon fill="black" stroke="black" points="760.13,-47.89 763.44,-37.82 754.57,-43.62 760.13,-47.89"/>
</g>
<!-- 52.137.186.232/30 -->
<g id="node15" class="node">
<title>52.137.186.232/30</title>
<text text-anchor="start" x="8.5" y="-158.1" font-family="Consolas" font-weight="bold" font-size="8.00">52.137.186.232/30</text>
<polygon fill="lightblue" stroke="none" points="8.5,-134.5 8.5,-154.5 171.5,-154.5 171.5,-134.5 8.5,-134.5"/>
<text text-anchor="start" x="9.5" y="-148.1" font-family="Consolas" font-size="8.00">0011</text>
<text text-anchor="start" x="28.5" y="-148.1" font-family="Consolas" font-weight="bold" text-decoration="underline" font-size="8.00">0</text>
<text text-anchor="start" x="33.5" y="-148.1" font-family="Consolas" font-size="8.00">100.10001001.10111010.111010</text>
<text text-anchor="start" x="160.5" y="-148.1" font-family="Consolas" font-size="8.00" fill="gray">00</text>
<text text-anchor="start" x="9.5" y="-139.1" font-family="Consolas" font-size="8.00">00110100.10001001.10111010.111010</text>
<text text-anchor="start" x="158.5" y="-139.1" font-family="Consolas" font-size="8.00" fill="gray">00</text>
<polygon fill="none" stroke="black" points="8.5,-134.5 8.5,-154.5 171.5,-154.5 171.5,-134.5 8.5,-134.5"/>
</g>
<!-- 48.0.0.0/4&#45;&gt;52.137.186.232/30 -->
<g id="edge14" class="edge">
<title>48.0.0.0/4&#45;&gt;52.137.186.232/30</title>
<path fill="none" stroke="black" d="M259.93,-262.1C225.17,-239.34 164.14,-199.38 125.32,-173.96"/>
<polygon fill="none" stroke="black" points="127.51,-171.21 117.23,-168.66 123.68,-177.06 127.51,-171.21"/>
</g>
<!-- 59.168.0.0/13 -->
<g id="node16" class="node">
<title>59.168.0.0/13</title>
<text text-anchor="start" x="205.5" y="-158.1" font-family="Consolas" font-weight="bold" font-size="8.00">59.168.0.0/13</text>
<polygon fill="lightblue" stroke="none" points="205.5,-134.5 205.5,-154.5 367.5,-154.5 367.5,-134.5 205.5,-134.5"/>
<text text-anchor="start" x="206.5" y="-148.1" font-family="Consolas" font-size="8.00">0011</text>
<text text-anchor="start" x="225.5" y="-148.1" font-family="Consolas" font-weight="bold" text-decoration="underline" font-size="8.00">1</text>
<text text-anchor="start" x="230.5" y="-148.1" font-family="Consolas" font-size="8.00">011.10101</text>
<text text-anchor="start" x="271.5" y="-148.1" font-family="Consolas" font-size="8.00" fill="gray">000.00000000.00000000</text>
<text text-anchor="start" x="206.5" y="-139.1" font-family="Consolas" font-size="8.00">00111011.10101</text>
<text text-anchor="start" x="270.5" y="-139.1" font-family="Consolas" font-size="8.00" fill="gray">000.00000000.00000000</text>
<polygon fill="none" stroke="black" points="205.5,-134.5 205.5,-154.5 367.5,-154.5 367.5,-134.5 205.5,-134.5"/>
</g>
<!-- 48.0.0.0/4&#45;&gt;59.168.0.0/13 -->
<g id="edge15" class="edge">
<title>48.0.0.0/4&#45;&gt;59.168.0.0/13</title>
<path fill="none" stroke="black" d="M286.5,-262.1C286.5,-240.83 286.5,-204.51 286.5,-179.11"/>
<polygon fill="black" stroke="black" points="290,-179.14 286.5,-169.14 283,-179.14 290,-179.14"/>
</g>
<!-- 59.168.83.0/24 -->
<g id="node17" class="node">
<title>59.168.83.0/24</title>
<text text-anchor="start" x="205.5" y="-27.1" font-family="Consolas" font-weight="bold" font-size="8.00">59.168.83.0/24</text>
<polygon fill="lightblue" stroke="none" points="205.5,-3.5 205.5,-23.5 367.5,-23.5 367.5,-3.5 205.5,-3.5"/>
<text text-anchor="start" x="206.5" y="-17.1" font-family="Consolas" font-size="8.00">00111011.10101</text>
<text text-anchor="start" x="270.5" y="-17.1" font-family="Consolas" font-weight="bold" text-decoration="underline" font-size="8.00">0</text>
<text text-anchor="start" x="275.5" y="-17.1" font-family="Consolas" font-size="8.00">00.01010011</text>
<text text-anchor="start" x="325.5" y="-17.1" font-family="Consolas" font-size="8.00" fill="gray">.00000000</text>
<text text-anchor="start" x="206.5" y="-8.1" font-family="Consolas" font-size="8.00">00111011.10101000.01010011</text>
<text text-anchor="start" x="324.5" y="-8.1" font-family="Consolas" font-size="8.00" fill="gray">.00000000</text>
<polygon fill="none" stroke="black" points="205.5,-3.5 205.5,-23.5 367.5,-23.5 367.5,-3.5 205.5,-3.5"/>
</g>
<!-- 59.168.0.0/13&#45;&gt;59.168.83.0/24 -->
<g id="edge16" class="edge">
<title>59.168.0.0/13&#45;&gt;59.168.83.0/24</title>
<path fill="none" stroke="black" d="M286.5,-131.1C286.5,-109.83 286.5,-73.51 286.5,-48.11"/>
<polygon fill="none" stroke="black" points="290,-48.14 286.5,-38.14 283,-48.14 290,-48.14"/>
</g>
</g>
</svg>
